<svg width="39" height="20" viewBox="0 0 39 20" fill="none" xmlns="http://www.w3.org/2000/svg">
<path d="M1.00001 -1.41472e-06C0.447721 -1.463e-06 -0.00267244 0.448014 0.0256402 0.999573C0.139543 3.2188 0.632097 5.4048 1.48435 7.46232C2.46432 9.82817 3.90068 11.9778 5.71142 13.7886C7.52216 15.5993 9.67183 17.0357 12.0377 18.0156C14.4035 18.9956 16.9392 19.5 19.5 19.5C22.0608 19.5 24.5965 18.9956 26.9623 18.0156C29.3282 17.0357 31.4778 15.5993 33.2886 13.7886C35.0993 11.9778 36.5357 9.82818 37.5157 7.46233C38.3679 5.4048 38.8605 3.21881 38.9744 0.999575C39.0027 0.448017 38.5523 -3.91405e-08 38 -8.74228e-08L35.9273 -2.68624e-07C35.375 -3.16906e-07 34.9307 0.448188 34.8949 0.999313C34.7856 2.68338 34.4005 4.34045 33.753 5.90377C32.9777 7.7755 31.8413 9.47619 30.4087 10.9087C28.9762 12.3413 27.2755 13.4777 25.4038 14.253C23.532 15.0283 21.5259 15.4273 19.5 15.4273C17.4741 15.4273 15.468 15.0283 13.5962 14.253C11.7245 13.4777 10.0238 12.3413 8.59125 10.9087C7.1587 9.47619 6.02233 7.77549 5.24704 5.90377C4.59949 4.34045 4.21442 2.68338 4.10511 0.999312C4.06933 0.448188 3.62499 -1.18523e-06 3.07271 -1.23352e-06L1.00001 -1.41472e-06Z" fill="#609A4C"/>
<path d="M7.11762 -2.9909e-05C6.56534 -2.99573e-05 6.11373 0.448305 6.15497 0.999048C6.26092 2.41437 6.59153 3.80601 7.13629 5.12117C7.80882 6.7448 8.79455 8.22006 10.0372 9.46272C11.2799 10.7054 12.7551 11.6911 14.3788 12.3637C16.0024 13.0362 17.7426 13.3823 19.5 13.3823C21.2574 13.3823 22.9976 13.0362 24.6212 12.3637C26.2448 11.6911 27.7201 10.7054 28.9627 9.46272C30.2054 8.22006 31.1911 6.7448 31.8637 5.12118C32.4084 3.80601 32.739 2.41437 32.845 0.999048C32.8862 0.448305 32.4346 -2.9603e-05 31.8823 -2.96513e-05L24.0407 -2.84295e-05C23.3335 -2.84913e-05 22.7827 0.594373 22.5121 1.24765C22.3483 1.64322 22.1081 2.00264 21.8054 2.30539C21.5026 2.60814 21.1432 2.8483 20.7477 3.01214C20.3521 3.17599 19.9281 3.26032 19.5 3.26032C19.0718 3.26032 18.6479 3.17599 18.2523 3.01214C17.8567 2.8483 17.4973 2.60814 17.1946 2.30539C16.8918 2.00264 16.6516 1.64322 16.4878 1.24765C16.2172 0.594373 15.6664 -2.91616e-05 14.9593 -2.92234e-05L7.11762 -2.9909e-05Z" fill="#E13636"/>
</svg>
